<svg width="230" height="130" fill="none" xmlns="http://www.w3.org/2000/svg"><path d="M106 49c.2 3.3.3 8.7.3 16.2 0 7.3-.1 12.6-.4 15.8-.8 14.3-5.6 26-14.2 35.1-8.5 9.1-21.3 13.7-38.3 13.7-17 0-30-4.6-38.6-13.7a54.3 54.3 0 0 1-14-35A445.5 445.5 0 0 1 .8 49c.8-14.3 5.5-26 14-35.1C23.5 4.8 36.3.2 53.4.2c17 0 29.8 4.6 38.3 13.7a53.8 53.8 0 0 1 14.2 35Zm-33.4.9c-.3-6.6-2-11.7-4.8-15.3-3-3.7-7.7-5.6-14.4-5.6-6.8 0-11.6 1.9-14.4 5.6a26.3 26.3 0 0 0-5 15.3A434 434 0 0 0 34 80c.3 6.6 1.9 11.8 4.8 15.5 3 3.6 7.8 5.4 14.6 5.4 6.7 0 11.5-1.8 14.4-5.4 3-3.7 4.6-8.9 4.8-15.5a240.8 240.8 0 0 0 0-30.2ZM218 2c1.3 0 2.4.5 3.4 1.4 1 1 1.4 2.1 1.4 3.5v19c0 1.8-1.2 4-3.6 6.3l-21.8 22a46.6 46.6 0 0 1 23.3 12.4A31 31 0 0 1 229 89c0 13.4-4.7 23.5-14 30.5s-22.3 10.4-39.3 10.4c-10.9 0-20.4-1.7-28.6-5a45.5 45.5 0 0 1-18.7-13.2 29.9 29.9 0 0 1-6.8-17.4c0-1.1.3-2 1-2.7a4 4 0 0 1 3-1.3h22.6c2 0 3.5.4 4.7 1a19 19 0 0 1 4.1 3.1 31 31 0 0 0 7.4 5c2.6 1.2 6.4 1.7 11.3 1.7 6 0 10.8-1 14.4-3 3.8-2.1 5.6-5.1 5.6-9 0-4-1.8-7-5.6-9-3.6-2.1-8.4-3.1-14.4-3.1H161c-1.3 0-2.5-.5-3.4-1.5-1-1-1.5-2-1.5-3.4V56.5a6 6 0 0 1 1-3.2c.7-1 1.6-2 2.8-3.2L179 30.8h-47c-1.3 0-2.4-.5-3.4-1.4-1-1-1.4-2.1-1.4-3.5V7c0-1.4.4-2.5 1.4-3.5 1-1 2.1-1.4 3.4-1.4h86Z" fill="#fff"/></svg>