<svg width="228" height="130" fill="none" xmlns="http://www.w3.org/2000/svg"><path d="M105.7 49c.2 3.3.3 8.7.3 16.2 0 7.3 0 12.6-.3 15.8-.9 14.3-5.6 26-14.2 35.1-8.6 9.1-21.3 13.7-38.4 13.7-17 0-29.9-4.6-38.5-13.7a54.3 54.3 0 0 1-14-35A445.5 445.5 0 0 1 .6 49c.8-14.3 5.5-26 14-35.1C23.2 4.8 36 .2 53 .2S83 4.8 91.5 13.9a53.8 53.8 0 0 1 14.2 35Zm-33.3.9c-.4-6.6-2-11.7-4.9-15.3-2.9-3.7-7.7-5.6-14.4-5.6s-11.5 1.9-14.4 5.6A26.3 26.3 0 0 0 34 49.9a434 434 0 0 0 0 30.2c.2 6.6 1.8 11.8 4.6 15.5 3 3.6 7.9 5.4 14.6 5.4 6.7 0 11.5-1.8 14.4-5.4 3-3.7 4.6-8.9 4.9-15.5a240.8 240.8 0 0 0 0-30.2ZM177 99.2h45.2c1.3 0 2.5.5 3.4 1.4 1 1 1.5 2.1 1.5 3.5v19c0 1.4-.5 2.5-1.5 3.5s-2 1.4-3.4 1.4h-95c-1.3 0-2.5-.5-3.4-1.4-1-1-1.5-2.1-1.5-3.5v-15.4c0-4.6 1.8-8.1 5.2-10.7l53.9-38.5a25 25 0 0 0 7.5-7.9 15.3 15.3 0 0 0-1.3-17.1c-2-3-6-4.5-11.8-4.5-4.1 0-7.3.8-9.7 2.5-2.3 1.6-3.8 3-4.5 4.5l-2.6 6.3a5.7 5.7 0 0 1-2.7 3.3 10 10 0 0 1-4.5.9h-22.1c-1 0-2-.4-2.9-1.1-.7-.9-1-1.8-1-2.9a42.2 42.2 0 0 1 22.6-36A54.5 54.5 0 0 1 175.6.2c10.2 0 19 2 26.3 6 7.3 3.8 12.8 9 16.5 15.4a39.6 39.6 0 0 1 5.8 20.9c0 7.3-1.7 14-5 20a57.6 57.6 0 0 1-17 17.6L177 99.2Z" fill="#fff"/></svg>